<?xml version="1.0" standalone="no"?>
<!DOCTYPE svg PUBLIC "-//W3C//DTD SVG 20010904//EN"
 "http://www.w3.org/TR/2001/REC-SVG-20010904/DTD/svg10.dtd">
<svg version="1.0" xmlns="http://www.w3.org/2000/svg"
 width="250.000000pt" height="250.000000pt" viewBox="0 0 250.000000 250.000000"
 preserveAspectRatio="xMidYMid meet">
<metadata>
Created by potrace 1.11, written by Peter Selinger 2001-2013
</metadata>
<g transform="translate(0.000000,250.000000) scale(0.100000,-0.100000)"
fill="#000000" stroke="none">
<path d="M1340 2214 c-220 -41 -422 -190 -561 -414 -56 -90 -129 -270 -129
-320 0 -26 -28 -37 -91 -34 -55 2 -55 1 -64 -85 -3 -29 -7 -57 -10 -60 -11
-18 17 -31 71 -33 l59 -3 3 -51 3 -52 -50 -7 c-27 -4 -51 -12 -54 -18 -8 -22
-30 -157 -26 -161 2 -3 40 -7 83 -10 43 -3 80 -7 81 -8 5 -5 135 -332 135
-339 0 -4 -8 -6 -17 -5 -10 2 -21 -2 -25 -8 -5 -8 -8 -7 -8 2 0 22 -26 12 -59
-23 -17 -19 -36 -35 -42 -35 -6 0 -7 -4 -4 -10 3 -5 1 -10 -5 -10 -6 0 -9 -4
-5 -9 3 -5 -3 -12 -12 -15 -10 -3 -23 -14 -30 -25 -10 -17 -9 -18 10 -14 18 4
19 3 7 -6 -13 -10 -13 -12 0 -21 13 -10 13 -11 0 -9 -28 3 -37 -1 -37 -16 0
-12 3 -12 16 -2 12 9 13 9 7 0 -9 -17 6 -17 23 -1 10 9 12 9 7 1 -7 -13 24
-11 46 3 7 4 8 3 4 -4 -4 -7 -1 -12 8 -12 9 0 15 5 14 11 -2 6 5 13 16 14 14
3 16 1 7 -8 -15 -15 -14 -27 4 -27 8 0 15 -6 15 -13 0 -7 9 -18 19 -24 15 -10
22 -9 31 2 7 8 17 15 23 15 6 0 2 -6 -9 -14 -14 -11 -16 -18 -8 -26 9 -9 14
-9 19 1 6 8 4 10 -5 4 -9 -5 -11 -4 -6 4 6 9 11 9 22 0 11 -9 17 -9 28 0 10 8
16 9 21 1 4 -6 1 -9 -6 -8 -6 2 -12 -7 -14 -18 -1 -15 3 -21 14 -19 9 2 16 4
16 5 0 2 17 4 37 5 21 1 35 -1 33 -5 -3 -4 -18 -6 -35 -5 -16 1 -27 -1 -24 -6
3 -5 9 -7 14 -4 5 3 11 1 15 -5 4 -6 11 -8 16 -4 5 3 16 0 24 -6 9 -8 15 -8
15 -2 0 6 -6 12 -12 15 -7 2 2 4 20 3 18 0 32 -6 32 -13 0 -21 21 -25 35 -7
10 14 17 16 25 8 9 -9 9 -14 -1 -19 -8 -5 -10 -4 -5 3 4 7 2 12 -4 12 -7 0
-10 -6 -7 -12 2 -7 14 -12 26 -10 12 2 28 -2 36 -8 11 -9 18 -7 34 9 l21 21 0
-22 c0 -12 3 -18 6 -15 4 3 15 2 25 -3 12 -7 20 -6 25 2 4 7 3 8 -4 4 -8 -5
-10 -1 -5 10 4 11 8 13 11 6 2 -7 9 -9 14 -6 7 5 8 2 3 -6 -6 -10 -1 -12 19
-8 14 3 26 2 26 -2 0 -4 14 -6 30 -4 17 2 30 -1 30 -7 0 -8 4 -8 13 0 8 6 17
8 20 4 12 -11 256 -10 260 1 1 6 2 88 2 183 l-2 171 -44 74 -44 73 -95 0
c-108 0 -153 16 -230 82 -42 36 -116 140 -107 149 3 3 95 5 206 5 110 0 202 3
205 8 5 8 11 53 20 141 3 31 0 36 -28 48 -20 8 -72 13 -146 12 -63 -1 -161 -1
-217 -1 l-103 1 0 48 0 48 256 1 c185 0 258 3 263 11 7 11 12 58 15 137 l1 30
-244 0 c-173 1 -246 4 -248 12 -7 20 38 95 88 149 32 32 72 62 112 80 54 25
74 29 159 29 l96 0 44 70 c23 38 44 83 46 100 1 16 7 68 13 115 6 47 13 108
16 137 l4 52 -38 10 c-105 27 -208 32 -303 15z m-566 -1652 c3 -5 -1 -9 -9 -9
-8 0 -15 4 -15 9 0 4 4 8 9 8 6 0 12 -4 15 -8z m-89 -51 c3 -5 2 -12 -3 -15
-5 -3 -9 1 -9 9 0 17 3 19 12 6z m16 -24 c-10 -9 -11 -8 -5 6 3 10 9 15 12 12
3 -3 0 -11 -7 -18z m-54 -12 c0 -8 -4 -12 -9 -9 -4 3 -8 9 -8 15 0 5 4 9 8 9
5 0 9 -7 9 -15z m204 -12 c13 -16 12 -17 -3 -4 -10 7 -18 15 -18 17 0 8 8 3
21 -13z m-124 -10 c0 -8 -4 -10 -12 -3 -7 5 -16 6 -20 2 -5 -4 -5 -2 -2 4 9
15 34 13 34 -3z m79 -19 c1 -9 0 -13 -4 -10 -3 4 -7 14 -8 22 -1 9 0 13 4 10
3 -4 7 -14 8 -22z m38 7 c3 -5 -2 -15 -12 -22 -15 -12 -16 -12 -5 2 7 9 10 19
6 22 -3 4 -4 7 0 7 3 0 8 -4 11 -9z m60 -7 c3 -8 2 -12 -4 -9 -6 3 -10 10 -10
16 0 14 7 11 14 -7z m-57 -31 c-4 -3 -1 -13 6 -22 11 -14 10 -14 -5 -2 -16 12
-16 31 -1 31 4 0 3 -3 0 -7z m-77 -45 c0 -6 -6 -5 -15 2 -8 7 -15 14 -15 16 0
2 7 1 15 -2 8 -4 15 -11 15 -16z m260 -14 c0 -8 -19 -13 -24 -6 -3 5 1 9 9 9
8 0 15 -2 15 -3z m77 -61 c-7 -11 19 -33 29 -25 4 4 4 1 0 -6 -6 -11 -12 -10
-27 4 -16 14 -18 34 -3 34 3 0 3 -3 1 -7z"/>
<path d="M810 320 c0 -6 7 -10 15 -10 8 0 15 2 15 4 0 2 -7 6 -15 10 -8 3 -15
1 -15 -4z"/>
</g>
</svg>
